<svg width="90" height="44" viewBox="0 0 90 44" fill="none" xmlns="http://www.w3.org/2000/svg">
<path opacity="0.3" d="M2.43974 31.4806C2.91087 29.8927 5.31891 25.4082 8.72054 23.2072L8.29307 31.7485C8.26153 32.0677 8.21551 32.3843 8.15585 32.6946C7.21148 37.6334 3.50163 40.6244 0.796387 42.2134C1.02632 39.6296 1.7941 35.3893 2.43974 31.4806Z" fill="#1B558D"/>
<g opacity="0.6">
<path d="M3.45533 25.613C3.45513 25.6141 3.45513 25.6151 3.45513 25.6162L3.45599 25.611C3.50207 25.3581 3.54815 25.1087 3.59593 24.8635C4.56961 19.8246 7.25681 16.586 12.2933 15.1487L26.8458 10.9926C25.6921 13.9595 23.2567 17.8893 19.5227 19.6487C19.2455 19.7784 18.9614 19.8978 18.6703 20.0027L11.7032 21.7806C10.6394 22.0775 9.61778 22.5885 8.65838 23.2548C5.93057 25.1499 3.70751 28.3072 2.45581 31.4291C2.75117 29.6117 3.08403 27.6518 3.45428 25.6162L3.45533 25.613Z" fill="#1B558D"/>
<path d="M3.45533 25.613C3.45546 25.6123 3.45566 25.6117 3.45599 25.611L3.45533 25.613Z" fill="#1B558D"/>
</g>
<path d="M3.45521 25.6162C3.45521 25.6145 3.45521 25.6127 3.45607 25.611L3.45521 25.6162ZM3.59602 24.8635C4.56969 19.8246 7.25689 16.5861 12.2934 15.1487L28.0607 10.6457C28.3508 10.539 28.6342 10.4186 28.9106 10.2853C33.2849 8.18212 35.8145 3.02622 36.6372 0.000976562L6.38306 8.83671C4.76937 9.46808 0.126296 10.8375 0 17.7172L0.79646 42.2134C1.05588 40.9652 1.94393 33.9203 3.45436 25.6162L3.45607 25.611C3.50215 25.3581 3.54823 25.1087 3.59602 24.8635Z" fill="#1B558D"/>
<path d="M86.8143 37.8328C85.2214 42.2134 82.0355 43.8063 79.6461 43.8063C79.6461 43.4385 79.6461 42.4179 79.6461 41.8151C79.6461 40.4525 81.0634 40.3287 81.8959 39.824C82.7285 39.3192 82.832 38.6293 82.832 38.6293C82.832 38.6293 80.8688 32.7696 79.6993 29.47C79.6993 29.47 78.8497 27.0806 80.4426 27.0806C80.8408 27.0806 82.0355 27.0806 82.0355 27.0806L84.8231 35.0452L86.8143 27.0806H90.0001C90.0001 27.0806 88.4072 33.4523 86.8143 37.8328ZM74.8674 21.5054C74.8674 21.5054 74.8674 19.9125 76.4603 19.9125C76.8585 19.9125 78.0532 19.9125 78.0532 19.9125C78.0532 19.9125 78.0532 35.0452 78.0532 36.6381C78.0532 38.2311 76.4603 38.2311 76.4603 38.2311H74.8674V21.5054ZM70.8851 24.6912H69.2921V23.0983C69.2921 23.0983 69.2921 21.5054 70.8851 21.5054C71.2833 21.5054 72.478 21.5054 72.478 21.5054C72.478 21.5054 72.478 22.3019 72.478 23.0983C72.478 24.6912 70.8851 24.6912 70.8851 24.6912ZM63.7169 31.0629C63.7169 30.2665 63.3187 29.47 62.124 29.47C60.9293 29.47 60.5311 30.2665 60.5311 31.0629C60.5311 31.0629 60.5311 35.0452 60.5311 36.6381C60.5311 38.2311 58.9382 38.2311 58.9382 38.2311H57.4144L57.3452 31.0629C57.3452 30.2665 56.947 29.47 55.7523 29.47C54.5576 29.47 54.1594 30.2665 54.1594 31.0629C54.1594 31.0629 54.1594 35.0452 54.1594 36.6381C54.1594 38.2311 52.5665 38.2311 52.5665 38.2311H50.9763V28.6735C50.9763 28.6735 50.9763 27.0806 52.5665 27.0806C52.9647 27.0806 54.1594 27.0806 54.1594 27.0806V27.8951C54.5576 27.4789 55.0989 27.0806 55.7523 27.0806C58.2567 27.0806 58.9382 27.8771 58.9382 28.6735C58.9382 27.8951 60.5311 27.0806 62.124 27.0806C64.5134 27.0806 66.9028 27.4789 66.9028 31.0629C66.9028 31.0629 66.9028 35.0452 66.9028 36.6381C66.9028 38.2311 65.3098 38.2311 65.3098 38.2311H63.7169V31.0629ZM45.3983 37.0364C44.6019 37.8328 43.861 38.2311 42.2125 38.2311C39.4249 38.2311 37.4337 35.8753 37.4337 32.6829C37.4337 29.4897 39.4249 27.0806 42.2125 27.0806C43.8054 27.0806 44.6019 27.4789 45.3983 28.2753V27.0806H48.5842C48.5842 27.0806 48.5842 35.0452 48.5842 36.6381C48.5842 38.2311 46.9913 38.2311 46.9913 38.2311H45.3983V37.0364ZM43.009 30.2665C41.8143 30.2665 40.6196 31.0629 40.6196 32.6558C40.6196 34.2488 41.8143 35.0452 43.009 35.0452C44.2037 35.0452 45.3983 34.2488 45.3983 32.6558C45.3983 31.0629 44.2037 30.2665 43.009 30.2665ZM31.0621 27.8951H35.8408C35.8408 27.8951 35.8408 27.8771 35.8408 29.47C35.8408 31.0629 34.2479 31.0629 34.2479 31.0629H31.0621C31.0621 31.0629 31.0621 35.0452 31.0621 36.6381C31.0621 38.2311 29.4691 38.2311 29.4691 38.2311H27.8762L27.8762 23.0983C27.8762 23.0983 27.8762 21.5054 29.4691 21.5054C31.0621 21.5054 37.4337 21.5054 37.4337 21.5054C37.4337 21.5054 37.4337 21.5054 37.4337 23.0983C37.4337 24.6912 35.8408 24.6912 35.8408 24.6912H31.0621V27.8951ZM70.8851 38.2311H69.2904L69.2921 27.0806H72.478C72.478 27.0806 72.478 35.0452 72.478 36.6381C72.478 38.2311 70.8851 38.2311 70.8851 38.2311Z" fill="#2D3845"/>
</svg>
