<svg width="78" height="59" viewBox="0 0 78 59" fill="none" xmlns="http://www.w3.org/2000/svg">
<path d="M29.3866 58.7736C13.1568 58.7736 -0.000144958 45.6167 -0.000144958 29.3868C-0.000144958 13.1569 13.1568 0 29.3866 0C45.6165 0 58.7734 13.1569 58.7734 29.3868C58.7734 45.6167 45.6165 58.7736 29.3866 58.7736Z" fill="white" fill-opacity="0.31"/>
<path fill-rule="evenodd" clip-rule="evenodd" d="M34.4697 17.1017C34.7626 16.8089 35.2374 16.8089 35.5303 17.1018C35.8232 17.3946 35.8232 17.8695 35.5303 18.1624L25.122 28.5708L77 28.5708C77.4142 28.5708 77.75 28.9065 77.75 29.3208C77.75 29.735 77.4142 30.0708 77 30.0708L24.9899 30.0708L35.5303 40.6112C35.8232 40.9041 35.8232 41.379 35.5303 41.6718C35.2374 41.9647 34.7626 41.9647 34.4697 41.6718L22.715 29.9171C22.5743 29.7765 22.4953 29.5857 22.4953 29.3868C22.4953 29.1879 22.5743 28.9971 22.715 28.8565L34.4697 17.1017Z" fill="white"/>
</svg>
