<svg width="47" height="47" viewBox="0 0 47 47" fill="none" xmlns="http://www.w3.org/2000/svg">
<circle cx="23.5" cy="23.5" r="23.5" fill="#3F714C"/>
<circle cx="23.5" cy="23.5" r="23.5" fill="white"/>
<path d="M23.38 23.1475C24.3948 23.1475 25.225 22.3242 25.225 21.318C25.225 20.3118 24.3948 19.4885 23.38 19.4885C22.3653 19.4885 21.535 20.3118 21.535 21.318C21.535 22.3242 22.3653 23.1475 23.38 23.1475ZM23.38 14C27.2545 14 30.76 16.9455 30.76 21.501C30.76 24.4099 28.4999 27.831 23.9889 31.7736C23.6383 32.0755 23.1125 32.0755 22.7619 31.7736C18.2601 27.831 16 24.4099 16 21.501C16 16.9455 19.5055 14 23.38 14Z" fill="#3F714C"/>
</svg>
