<svg width="237" height="85" viewBox="0 0 237 85" fill="none" xmlns="http://www.w3.org/2000/svg">
<path d="M34.6824 7.04C36.1544 7.28 37.2824 7.832 38.0664 8.696C38.8504 9.544 39.2424 10.6 39.2424 11.864C39.2424 12.84 38.9864 13.744 38.4744 14.576C37.9624 15.392 37.1784 16.048 36.1224 16.544C35.0824 17.04 33.8024 17.288 32.2824 17.288C31.0984 17.288 29.9304 17.136 28.7784 16.832C27.6424 16.512 26.6744 16.064 25.8744 15.488L27.3864 12.512C28.0264 12.992 28.7624 13.368 29.5944 13.64C30.4424 13.896 31.3064 14.024 32.1864 14.024C33.1624 14.024 33.9304 13.84 34.4904 13.472C35.0504 13.088 35.3304 12.552 35.3304 11.864C35.3304 10.488 34.2824 9.8 32.1864 9.8H30.4104V7.232L33.8664 3.32H26.7144V0.199999H38.4744V2.72L34.6824 7.04Z" fill="white"/>
<path d="M48.784 13.416H47.024V17H45.488V8.52H47.024V12.104H48.816L51.568 8.52H53.216L50 12.6L53.44 17H51.632L48.784 13.416ZM64.8265 8.52V17H63.4345V10.808L60.2665 16.04H59.5945L56.4585 10.792V17H55.0505V8.52H56.6345L59.9625 14.248L63.3865 8.52H64.8265Z" fill="white"/>
<path fill-rule="evenodd" clip-rule="evenodd" d="M11.4207 53.6443C11.4207 50.2972 14.1443 47.5607 17.3803 47.5607C20.6166 47.5607 23.3402 50.2972 23.3402 53.6443C23.3402 56.9914 20.6166 59.7275 17.3803 59.7275C14.144 59.7275 11.4207 56.991 11.4207 53.6443ZM22.0133 53.6443C22.0133 51.0747 20.0319 48.9278 17.3803 48.9278C14.7355 48.9278 12.742 51.0679 12.742 53.6443C12.742 56.2543 14.7684 58.3322 17.3803 58.3322C19.999 58.3322 22.0133 56.2474 22.0133 53.6443Z" fill="white"/>
<path d="M16.8478 74.3987L16.9842 74.5241L16.9069 74.4532L16.8478 74.3987Z" fill="white"/>
<path fill-rule="evenodd" clip-rule="evenodd" d="M16.9603 79.5782L16.9554 79.5741L16.9467 79.5661L16.9141 79.5367C16.8842 79.51 16.8387 79.4689 16.7785 79.414C16.6581 79.3046 16.479 79.1403 16.2495 78.9269C15.7905 78.4996 15.1308 77.875 14.3374 77.0933C12.7481 75.5272 10.6342 73.3438 8.52334 70.8641C6.3678 68.3323 4.21643 65.6713 2.60128 62.8947C0.985386 60.1174 0 57.3809 0 54.6966C0 44.934 7.83335 37 17.3803 37C26.9299 37 34.7776 44.9363 34.7776 54.6966C34.7776 57.379 33.7892 60.1148 32.1692 62.8924C30.5495 65.6697 28.3939 68.3311 26.2376 70.8641C24.1256 73.3445 22.0152 75.5288 20.4295 77.0952C19.6381 77.8769 18.9803 78.5019 18.5228 78.9296C18.2941 79.143 18.1154 79.3073 17.9953 79.4167C17.9355 79.4716 17.89 79.5127 17.8601 79.5394L17.8275 79.5691L17.8204 79.5756L17.8188 79.5767L17.8173 79.5782C17.5704 79.7993 17.2072 79.7993 16.9603 79.5782ZM19.3249 76.105C20.5943 74.9346 22.4158 73.255 25.2485 69.9273C27.3472 67.4622 29.3486 64.6364 30.8388 62.0173C31.5841 60.7078 32.2207 59.4154 32.6774 58.2194C33.1197 57.0608 33.4564 55.8305 33.4564 54.6966C33.4564 45.6738 26.3069 38.3896 17.3803 38.3896C8.45025 38.3896 1.32089 45.6772 1.32089 54.6966C1.32089 55.8282 1.65492 57.0565 2.09496 58.2155C2.54902 59.4115 3.18296 60.7039 3.92521 62.0139C5.41008 64.6338 7.40656 67.4606 9.50644 69.9273C12.3199 73.2321 14.1431 74.9132 15.4124 76.0836L15.4133 76.0844L15.4888 76.1541C15.6262 76.2809 15.7571 76.4017 15.8818 76.5182L17.3795 77.915L18.8777 76.5189C18.991 76.4134 19.1092 76.3042 19.2327 76.1902C19.2631 76.1621 19.2938 76.1337 19.3249 76.105Z" fill="white"/>
<path fill-rule="evenodd" clip-rule="evenodd" d="M69.6431 53.6443C69.6431 50.2972 72.3667 47.5607 75.6031 47.5607C78.839 47.5607 81.5626 50.2972 81.5626 53.6443C81.5626 56.9914 78.839 59.7275 75.6031 59.7275C72.3667 59.7275 69.6431 56.991 69.6431 53.6443ZM80.2357 53.6443C80.2357 51.0747 78.2543 48.9278 75.6031 48.9278C72.9579 48.9278 70.9644 51.0679 70.9644 53.6443C70.9644 56.2543 72.9908 58.3322 75.6031 58.3322C78.2214 58.3322 80.2357 56.2474 80.2357 53.6443Z" fill="white"/>
<path d="M75.0944 74.4205L75.1611 74.4818L75.1274 74.4513L75.0944 74.4205Z" fill="white"/>
<path fill-rule="evenodd" clip-rule="evenodd" d="M75.1827 79.5782L75.1778 79.5741L75.1766 79.5726L75.1691 79.5661L75.1365 79.5367C75.1066 79.51 75.0611 79.4689 75.0009 79.414C74.8805 79.3046 74.7014 79.1403 74.4719 78.9269C74.0129 78.4996 73.3532 77.875 72.5598 77.0933C70.9704 75.5272 68.8566 73.3438 66.7457 70.8641C64.5905 68.3323 62.4388 65.6713 60.8236 62.8947C59.2077 60.1174 58.2224 57.3809 58.2224 54.6966C58.2224 44.934 66.0557 37 75.6031 37C85.1523 37 93 44.9363 93 54.6966C93 57.379 92.0116 60.1148 90.3915 62.8924C88.7722 65.6697 86.6163 68.3311 84.46 70.8641C82.3484 73.3445 80.2375 75.5288 78.6519 77.0952C77.8605 77.8769 77.2026 78.5019 76.7452 78.9296C76.5164 79.143 76.3381 79.3073 76.2177 79.4167C76.1578 79.4716 76.1124 79.5127 76.0829 79.5394L76.0499 79.5691L76.0427 79.5756L76.0412 79.5767L76.0397 79.5782C75.7928 79.7993 75.4296 79.7993 75.1827 79.5782ZM77.5473 76.105C78.8167 74.9346 80.6382 73.255 83.4712 69.9273C85.5696 67.4622 87.5714 64.6364 89.0612 62.0173C89.8065 60.7078 90.4434 59.4154 90.8997 58.2194C91.3421 57.0608 91.6787 55.8305 91.6787 54.6966C91.6787 45.6738 84.5293 38.3896 75.6031 38.3896C66.673 38.3896 59.5436 45.6772 59.5436 54.6966C59.5436 55.8282 59.8776 57.0565 60.3177 58.2155C60.7717 59.4115 61.4053 60.7039 62.1476 62.0139C63.6324 64.6338 65.6289 67.4606 67.7288 69.9273C70.5414 73.2317 72.3648 74.9129 73.6338 76.0826L73.716 76.1584C73.8517 76.2837 73.9811 76.4032 74.1042 76.5182L75.6019 77.915L77.1004 76.5189C77.2184 76.4088 77.3419 76.2948 77.4712 76.1753L77.5473 76.105Z" fill="white"/>
<path d="M59.2608 83.598L59.2695 83.5973C59.291 83.5969 59.3123 83.5969 59.3338 83.598L59.388 83.6007H67.1861C67.5303 83.6007 67.8492 83.8908 67.8492 84.2989C67.8492 84.7056 67.5311 84.996 67.1861 84.996H59.3838L59.3263 84.999C58.9813 85.0173 58.6476 84.7434 58.6272 84.3363C58.6064 83.9274 58.9124 83.6163 59.2608 83.598Z" fill="white"/>
<path d="M25.6874 83.598C25.6654 83.5969 25.6442 83.5969 25.6226 83.5973L25.6143 83.598C25.2659 83.6163 24.9599 83.9274 24.9803 84.3363C25.0012 84.7434 25.3344 85.0173 25.6794 84.999L25.7374 84.996H33.5563C33.9009 84.996 34.2194 84.7056 34.2194 84.2989C34.2194 83.8908 33.9006 83.6007 33.5563 83.6007H25.7412L25.6874 83.598Z" fill="white"/>
<path d="M42.5127 83.5981C42.4907 83.597 42.4695 83.597 42.4479 83.5974L42.4396 83.5981C42.0912 83.6164 41.7852 83.9275 41.8056 84.3364C41.8265 84.7435 42.1597 85.0174 42.5047 84.9991L42.5627 84.9961H50.3816C50.7262 84.9961 51.0447 84.7057 51.0447 84.299C51.0447 83.8909 50.7259 83.6008 50.3816 83.6008H42.5664L42.5127 83.5981Z" fill="white"/>
<path d="M187.547 13.472H184.811V17H181.019V13.472H171.971V10.856L179.891 0.199999H183.971L176.627 10.304H181.139V7.16H184.811V10.304H187.547V13.472Z" fill="white"/>
<path d="M198.784 17L196.336 13.752L193.856 17H192.144L195.488 12.664L192.304 8.52H194.016L196.352 11.576L198.672 8.52H200.352L197.152 12.664L200.528 17H198.784ZM207.92 12.6C209.019 12.8773 209.568 13.5653 209.568 14.664C209.568 15.4107 209.286 15.9867 208.72 16.392C208.166 16.7973 207.334 17 206.224 17H202.144V8.52H206.08C207.083 8.52 207.867 8.712 208.432 9.096C208.998 9.46933 209.28 10.0027 209.28 10.696C209.28 11.144 209.158 11.5333 208.912 11.864C208.678 12.184 208.347 12.4293 207.92 12.6ZM203.648 12.168H205.952C206.539 12.168 206.982 12.0613 207.28 11.848C207.59 11.6347 207.744 11.3253 207.744 10.92C207.744 10.1093 207.147 9.704 205.952 9.704H203.648V12.168ZM206.112 15.816C206.752 15.816 207.232 15.7147 207.552 15.512C207.872 15.3093 208.032 14.9947 208.032 14.568C208.032 14.1307 207.883 13.8053 207.584 13.592C207.296 13.3787 206.838 13.272 206.208 13.272H203.648V15.816H206.112Z" fill="white"/>
<path d="M154.263 52.6495L149.244 53.4792C148.79 53.5535 148.357 53.7073 147.964 53.9287C147.572 54.1497 147.217 54.4406 146.92 54.7893C146.622 55.138 146.392 55.5323 146.238 55.9515C146.081 56.376 146 56.8263 146 57.2811L146.003 70.0275C146.003 70.5423 146.105 71.0434 146.297 71.5022C146.487 71.9596 146.772 72.3845 147.138 72.7474C147.504 73.1103 147.932 73.3932 148.393 73.5825C148.856 73.7726 149.36 73.8734 149.879 73.8734H157.579L157.695 74.5279C157.91 75.7484 158.409 76.8819 159.132 77.8467C159.856 78.8129 160.805 79.6145 161.917 80.1689C163.029 80.7226 164.244 81 165.46 81C166.676 81 167.89 80.723 169 80.1689C170.115 79.6145 171.064 78.8133 171.788 77.8463C172.511 76.8816 173.01 75.7484 173.226 74.5279L173.341 73.8734H211.106L211.221 74.5279C211.436 75.7484 211.935 76.8816 212.658 77.8463C213.382 78.8133 214.331 79.6145 215.443 80.1689C216.556 80.7226 217.77 81 218.987 81C220.203 81 221.417 80.723 222.527 80.1689C223.642 79.6145 224.59 78.8133 225.315 77.8467C226.038 76.8815 226.537 75.748 226.752 74.5279L226.868 73.8734H234.35C234.705 73.8734 235.049 73.805 235.362 73.6766C235.679 73.547 235.972 73.3548 236.22 73.1095C236.466 72.8661 236.661 72.5767 236.793 72.2624C236.926 71.9454 236.998 71.6049 237 71.2617L236.997 65.0749C237.001 64.1232 236.84 63.1782 236.529 62.2803C236.219 61.3832 235.762 60.5397 235.173 59.7893C234.58 59.0343 233.868 58.3873 233.071 57.8725C232.275 57.358 231.391 56.973 230.454 56.7397L217.32 53.4919L217.15 53.2342C215.908 51.3495 214.44 49.6336 212.785 48.1241C211.129 46.6135 209.283 45.3064 207.289 44.2386C205.294 43.1712 203.178 42.3587 200.995 41.8147C198.808 41.27 196.555 40.9941 194.292 41.0001L174.748 41.0034C172.092 40.9952 169.52 41.6617 167.25 42.8829C164.98 44.1042 163.015 45.8799 161.569 48.0924L161.56 48.1047C160.716 49.3364 159.633 50.3639 158.393 51.136C157.144 51.911 155.741 52.433 154.263 52.6495ZM221.502 79.2605C220.708 79.5865 219.854 79.7593 218.986 79.7593C218.116 79.7593 217.261 79.5865 216.467 79.2602C215.677 78.9339 214.949 78.4559 214.334 77.8459L214.331 77.8429C213.714 77.2302 213.232 76.5093 212.906 75.7267C212.577 74.9363 212.403 74.0884 212.403 73.2275C212.403 72.3665 212.577 71.5183 212.906 70.7309C213.232 69.9453 213.714 69.2239 214.331 68.6113L214.334 68.6083C214.951 67.9964 215.678 67.5181 216.467 67.194C217.264 66.8681 218.119 66.6953 218.986 66.6953C219.854 66.6953 220.708 66.8681 221.502 67.194C222.294 67.5181 223.021 67.9964 223.638 68.6083L223.641 68.6113C224.257 69.2225 224.738 69.9446 225.066 70.7309C225.395 71.5183 225.569 72.3665 225.569 73.2275C225.569 74.0884 225.395 74.9363 225.066 75.7237C224.74 76.5093 224.258 77.2302 223.641 77.8429L223.638 77.8459C223.023 78.4563 222.294 78.935 221.502 79.2605ZM167.979 79.2591C167.185 79.5865 166.33 79.7593 165.46 79.7593C164.59 79.7593 163.735 79.5865 162.941 79.2602C162.147 78.9324 161.419 78.4544 160.805 77.8459C160.189 77.2302 159.707 76.5093 159.38 75.7267C159.051 74.9363 158.877 74.0884 158.877 73.2275C158.877 72.3665 159.051 71.5183 159.38 70.7309C159.708 69.9446 160.19 69.2221 160.805 68.6113L160.808 68.6083C161.426 67.9964 162.152 67.5181 162.941 67.194C163.738 66.8681 164.593 66.6953 165.46 66.6953C166.327 66.6953 167.182 66.8681 167.976 67.194C168.768 67.5181 169.494 67.9964 170.112 68.6083L170.115 68.6113C170.729 69.2217 171.211 69.9435 171.539 70.7282C171.869 71.5153 172.043 72.3643 172.043 73.2275C172.043 74.0907 171.869 74.9397 171.54 75.7263C171.211 76.5108 170.729 77.2324 170.115 77.8429C169.501 78.4544 168.773 78.9324 167.979 79.2591ZM148.058 71.8334C147.592 71.3708 147.303 70.7316 147.303 70.0263L147.38 57.2795C147.377 56.6639 147.595 56.0908 147.965 55.6469C148.336 55.2011 148.864 54.8796 149.477 54.768C150.192 54.5959 153.935 53.9328 154.533 53.9328C156.191 53.6759 157.759 53.0808 159.146 52.2049C160.532 51.329 161.738 50.1708 162.675 48.7883C164.001 46.7584 165.799 45.1313 167.872 44.0157C169.948 42.899 172.306 42.2904 174.748 42.296L194.293 42.2927C198.777 42.2863 203.106 43.4235 206.903 45.5054C210.706 47.5898 213.983 50.6207 216.363 54.3943C216.407 54.4652 216.465 54.5268 216.53 54.5742C216.595 54.6209 216.67 54.6567 216.752 54.6773L230.131 57.9931C230.923 58.1898 231.673 58.5169 232.353 58.9556C233.031 59.3931 233.636 59.9423 234.141 60.5834C234.648 61.2293 235.038 61.9458 235.299 62.7004C235.559 63.4542 235.694 64.2564 235.693 65.0741V71.2793C235.684 71.6418 235.53 71.9685 235.288 72.2018C235.045 72.4371 234.713 72.5823 234.35 72.5823H226.868L226.752 71.9278C226.537 70.7073 226.038 69.5742 225.315 68.6094C224.592 67.6439 223.642 66.8427 222.527 66.2864C221.418 65.7327 220.204 65.4557 218.986 65.4557C217.769 65.4557 216.555 65.7327 215.445 66.2853C214.331 66.8427 213.381 67.6439 212.658 68.6094C211.935 69.5742 211.436 70.7073 211.221 71.9278L211.106 72.5823H173.341L173.225 71.9278C173.01 70.7073 172.511 69.5742 171.788 68.6094C171.064 67.6425 170.115 66.8412 169.003 66.2864C167.893 65.7331 166.678 65.4557 165.46 65.4557C164.242 65.4557 163.027 65.7327 161.917 66.2864C160.804 66.8412 159.856 67.6425 159.132 68.6094C158.409 69.5742 157.909 70.7073 157.694 71.9278L157.579 72.5823H149.879C149.169 72.5823 148.524 72.296 148.058 71.8334Z" fill="white"/>
</svg>
