<svg width="237" height="86" viewBox="0 0 237 86" fill="none" xmlns="http://www.w3.org/2000/svg">
<path d="M29.1036 1.2V3.72L22.8636 18H18.6396L24.6636 4.368H19.0956V7.104H15.6396V1.2H29.1036ZM31.8946 13.536C32.5666 13.536 33.1186 13.752 33.5506 14.184C33.9826 14.6 34.1986 15.152 34.1986 15.84C34.1986 16.16 34.1586 16.48 34.0786 16.8C33.9986 17.12 33.8226 17.6 33.5506 18.24L32.1826 21.696H29.8066L30.8626 17.88C30.4626 17.72 30.1426 17.464 29.9026 17.112C29.6786 16.744 29.5666 16.32 29.5666 15.84C29.5666 15.152 29.7826 14.6 30.2146 14.184C30.6626 13.752 31.2226 13.536 31.8946 13.536ZM43.7271 7.464C44.7991 7.464 45.7751 7.68 46.6551 8.112C47.5351 8.544 48.2311 9.16 48.7431 9.96C49.2551 10.744 49.5111 11.656 49.5111 12.696C49.5111 13.816 49.2311 14.8 48.6711 15.648C48.1111 16.496 47.3431 17.152 46.3671 17.616C45.4071 18.064 44.3351 18.288 43.1511 18.288C40.7991 18.288 38.9591 17.568 37.6311 16.128C36.3031 14.688 35.6391 12.632 35.6391 9.96C35.6391 8.056 35.9991 6.424 36.7191 5.064C37.4391 3.704 38.4391 2.672 39.7191 1.968C41.0151 1.264 42.5111 0.912 44.2071 0.912C45.1031 0.912 45.9591 1.016 46.7751 1.224C47.6071 1.416 48.3111 1.696 48.8871 2.064L47.4471 4.92C46.6151 4.36 45.5671 4.08 44.3031 4.08C42.8791 4.08 41.7511 4.496 40.9191 5.328C40.0871 6.16 39.6391 7.368 39.5751 8.952C40.5671 7.96 41.9511 7.464 43.7271 7.464ZM42.9351 15.384C43.7671 15.384 44.4391 15.16 44.9511 14.712C45.4791 14.264 45.7431 13.656 45.7431 12.888C45.7431 12.12 45.4791 11.512 44.9511 11.064C44.4391 10.6 43.7511 10.368 42.8871 10.368C42.0391 10.368 41.3431 10.608 40.7991 11.088C40.2551 11.552 39.9831 12.152 39.9831 12.888C39.9831 13.624 40.2471 14.224 40.7751 14.688C41.3031 15.152 42.0231 15.384 42.9351 15.384Z" fill="white"/>
<path d="M59.784 14.416H58.024V18H56.488V9.52H58.024V13.104H59.816L62.568 9.52H64.216L61 13.6L64.44 18H62.632L59.784 14.416ZM75.8265 9.52V18H74.4345V11.808L71.2665 17.04H70.5945L67.4585 11.792V18H66.0505V9.52H67.6345L70.9625 15.248L74.3865 9.52H75.8265Z" fill="white"/>
<path fill-rule="evenodd" clip-rule="evenodd" d="M11.4207 54.6443C11.4207 51.2972 14.1443 48.5607 17.3803 48.5607C20.6166 48.5607 23.3402 51.2972 23.3402 54.6443C23.3402 57.9914 20.6166 60.7275 17.3803 60.7275C14.144 60.7275 11.4207 57.991 11.4207 54.6443ZM22.0133 54.6443C22.0133 52.0747 20.0319 49.9278 17.3803 49.9278C14.7355 49.9278 12.742 52.0679 12.742 54.6443C12.742 57.2543 14.7684 59.3322 17.3803 59.3322C19.999 59.3322 22.0133 57.2474 22.0133 54.6443Z" fill="white"/>
<path d="M16.8478 75.3987L16.9842 75.5241L16.9069 75.4532L16.8478 75.3987Z" fill="white"/>
<path fill-rule="evenodd" clip-rule="evenodd" d="M16.9603 80.5782L16.9554 80.5741L16.9467 80.5661L16.9141 80.5367C16.8842 80.51 16.8387 80.4689 16.7785 80.414C16.6581 80.3046 16.479 80.1403 16.2495 79.9269C15.7905 79.4996 15.1308 78.875 14.3374 78.0933C12.7481 76.5272 10.6342 74.3438 8.52334 71.8641C6.3678 69.3323 4.21643 66.6713 2.60128 63.8947C0.985386 61.1174 0 58.3809 0 55.6966C0 45.934 7.83335 38 17.3803 38C26.9299 38 34.7776 45.9363 34.7776 55.6966C34.7776 58.379 33.7892 61.1148 32.1692 63.8924C30.5495 66.6697 28.3939 69.3311 26.2376 71.8641C24.1256 74.3445 22.0152 76.5288 20.4295 78.0952C19.6381 78.8769 18.9803 79.5019 18.5228 79.9296C18.2941 80.143 18.1154 80.3073 17.9953 80.4167C17.9355 80.4716 17.89 80.5127 17.8601 80.5394L17.8275 80.5691L17.8204 80.5756L17.8188 80.5767L17.8173 80.5782C17.5704 80.7993 17.2072 80.7993 16.9603 80.5782ZM19.3249 77.105C20.5943 75.9346 22.4158 74.255 25.2485 70.9273C27.3472 68.4622 29.3486 65.6364 30.8388 63.0173C31.5841 61.7078 32.2207 60.4154 32.6774 59.2194C33.1197 58.0608 33.4564 56.8305 33.4564 55.6966C33.4564 46.6738 26.3069 39.3896 17.3803 39.3896C8.45025 39.3896 1.32089 46.6772 1.32089 55.6966C1.32089 56.8282 1.65492 58.0565 2.09496 59.2155C2.54902 60.4115 3.18296 61.7039 3.92521 63.0139C5.41008 65.6338 7.40656 68.4606 9.50644 70.9273C12.3199 74.2321 14.1431 75.9132 15.4124 77.0836L15.4133 77.0844L15.4888 77.1541C15.6262 77.2809 15.7571 77.4017 15.8818 77.5182L17.3795 78.915L18.8777 77.5189C18.991 77.4134 19.1092 77.3042 19.2327 77.1902C19.2631 77.1621 19.2938 77.1337 19.3249 77.105Z" fill="white"/>
<path fill-rule="evenodd" clip-rule="evenodd" d="M69.6431 54.6443C69.6431 51.2972 72.3667 48.5607 75.6031 48.5607C78.839 48.5607 81.5626 51.2972 81.5626 54.6443C81.5626 57.9914 78.839 60.7275 75.6031 60.7275C72.3667 60.7275 69.6431 57.991 69.6431 54.6443ZM80.2357 54.6443C80.2357 52.0747 78.2543 49.9278 75.6031 49.9278C72.9579 49.9278 70.9644 52.0679 70.9644 54.6443C70.9644 57.2543 72.9908 59.3322 75.6031 59.3322C78.2214 59.3322 80.2357 57.2474 80.2357 54.6443Z" fill="white"/>
<path d="M75.0944 75.4205L75.1611 75.4818L75.1274 75.4513L75.0944 75.4205Z" fill="white"/>
<path fill-rule="evenodd" clip-rule="evenodd" d="M75.1827 80.5782L75.1778 80.5741L75.1766 80.5726L75.1691 80.5661L75.1365 80.5367C75.1066 80.51 75.0611 80.4689 75.0009 80.414C74.8805 80.3046 74.7014 80.1403 74.4719 79.9269C74.0129 79.4996 73.3532 78.875 72.5598 78.0933C70.9704 76.5272 68.8566 74.3438 66.7457 71.8641C64.5905 69.3323 62.4388 66.6713 60.8236 63.8947C59.2077 61.1174 58.2224 58.3809 58.2224 55.6966C58.2224 45.934 66.0557 38 75.6031 38C85.1523 38 93 45.9363 93 55.6966C93 58.379 92.0116 61.1148 90.3915 63.8924C88.7722 66.6697 86.6163 69.3311 84.46 71.8641C82.3484 74.3445 80.2375 76.5288 78.6519 78.0952C77.8605 78.8769 77.2026 79.5019 76.7452 79.9296C76.5164 80.143 76.3381 80.3073 76.2177 80.4167C76.1578 80.4716 76.1124 80.5127 76.0829 80.5394L76.0499 80.5691L76.0427 80.5756L76.0412 80.5767L76.0397 80.5782C75.7928 80.7993 75.4296 80.7993 75.1827 80.5782ZM77.5473 77.105C78.8167 75.9346 80.6382 74.255 83.4712 70.9273C85.5696 68.4622 87.5714 65.6364 89.0612 63.0173C89.8065 61.7078 90.4434 60.4154 90.8997 59.2194C91.3421 58.0608 91.6787 56.8305 91.6787 55.6966C91.6787 46.6738 84.5293 39.3896 75.6031 39.3896C66.673 39.3896 59.5436 46.6772 59.5436 55.6966C59.5436 56.8282 59.8776 58.0565 60.3177 59.2155C60.7717 60.4115 61.4053 61.7039 62.1476 63.0139C63.6324 65.6338 65.6289 68.4606 67.7288 70.9273C70.5414 74.2317 72.3648 75.9129 73.6338 77.0826L73.716 77.1584C73.8517 77.2837 73.9811 77.4032 74.1042 77.5182L75.6019 78.915L77.1004 77.5189C77.2184 77.4088 77.3419 77.2948 77.4712 77.1753L77.5473 77.105Z" fill="white"/>
<path d="M59.2608 84.598L59.2695 84.5973C59.291 84.5969 59.3123 84.5969 59.3338 84.598L59.388 84.6007H67.1861C67.5303 84.6007 67.8492 84.8908 67.8492 85.2989C67.8492 85.7056 67.5311 85.996 67.1861 85.996H59.3838L59.3263 85.999C58.9813 86.0173 58.6476 85.7434 58.6272 85.3363C58.6064 84.9274 58.9124 84.6163 59.2608 84.598Z" fill="white"/>
<path d="M25.6874 84.598C25.6654 84.5969 25.6442 84.5969 25.6226 84.5973L25.6143 84.598C25.2659 84.6163 24.9599 84.9274 24.9803 85.3363C25.0012 85.7434 25.3344 86.0173 25.6794 85.999L25.7374 85.996H33.5563C33.9009 85.996 34.2194 85.7056 34.2194 85.2989C34.2194 84.8908 33.9006 84.6007 33.5563 84.6007H25.7412L25.6874 84.598Z" fill="white"/>
<path d="M42.5127 84.5981C42.4907 84.597 42.4695 84.597 42.4479 84.5974L42.4396 84.5981C42.0912 84.6164 41.7852 84.9275 41.8056 85.3364C41.8265 85.7435 42.1597 86.0174 42.5047 85.9991L42.5627 85.9961H50.3816C50.7262 85.9961 51.0447 85.7057 51.0447 85.299C51.0447 84.8909 50.7259 84.6008 50.3816 84.6008H42.5664L42.5127 84.5981Z" fill="white"/>
<path d="M178.199 0.912C180.551 0.912 182.391 1.632 183.719 3.072C185.047 4.496 185.711 6.552 185.711 9.24C185.711 11.144 185.351 12.776 184.631 14.136C183.927 15.496 182.927 16.528 181.631 17.232C180.335 17.936 178.839 18.288 177.143 18.288C176.247 18.288 175.391 18.192 174.575 18C173.759 17.792 173.063 17.504 172.487 17.136L173.927 14.28C174.743 14.84 175.791 15.12 177.071 15.12C178.495 15.12 179.623 14.704 180.455 13.872C181.287 13.024 181.735 11.808 181.799 10.224C180.791 11.232 179.399 11.736 177.623 11.736C176.551 11.736 175.575 11.52 174.695 11.088C173.815 10.656 173.119 10.048 172.607 9.264C172.095 8.464 171.839 7.544 171.839 6.504C171.839 5.384 172.119 4.4 172.679 3.552C173.239 2.704 173.999 2.056 174.959 1.608C175.935 1.144 177.015 0.912 178.199 0.912ZM178.487 8.832C179.335 8.832 180.023 8.6 180.551 8.136C181.095 7.656 181.367 7.048 181.367 6.312C181.367 5.576 181.103 4.976 180.575 4.512C180.063 4.048 179.351 3.816 178.439 3.816C177.607 3.816 176.927 4.04 176.399 4.488C175.887 4.936 175.631 5.544 175.631 6.312C175.631 7.08 175.887 7.696 176.399 8.16C176.927 8.608 177.623 8.832 178.487 8.832Z" fill="white"/>
<path d="M197.784 18L195.336 14.752L192.856 18H191.144L194.488 13.664L191.304 9.52H193.016L195.352 12.576L197.672 9.52H199.352L196.152 13.664L199.528 18H197.784ZM206.92 13.6C208.019 13.8773 208.568 14.5653 208.568 15.664C208.568 16.4107 208.286 16.9867 207.72 17.392C207.166 17.7973 206.334 18 205.224 18H201.144V9.52H205.08C206.083 9.52 206.867 9.712 207.432 10.096C207.998 10.4693 208.28 11.0027 208.28 11.696C208.28 12.144 208.158 12.5333 207.912 12.864C207.678 13.184 207.347 13.4293 206.92 13.6ZM202.648 13.168H204.952C205.539 13.168 205.982 13.0613 206.28 12.848C206.59 12.6347 206.744 12.3253 206.744 11.92C206.744 11.1093 206.147 10.704 204.952 10.704H202.648V13.168ZM205.112 16.816C205.752 16.816 206.232 16.7147 206.552 16.512C206.872 16.3093 207.032 15.9947 207.032 15.568C207.032 15.1307 206.883 14.8053 206.584 14.592C206.296 14.3787 205.838 14.272 205.208 14.272H202.648V16.816H205.112Z" fill="white"/>
<path d="M154.263 53.6495L149.244 54.4792C148.79 54.5535 148.357 54.7073 147.964 54.9287C147.572 55.1497 147.217 55.4406 146.92 55.7893C146.622 56.138 146.392 56.5323 146.238 56.9515C146.081 57.376 146 57.8263 146 58.2811L146.003 71.0275C146.003 71.5423 146.105 72.0434 146.297 72.5022C146.487 72.9596 146.772 73.3845 147.138 73.7474C147.504 74.1103 147.932 74.3932 148.393 74.5825C148.856 74.7726 149.36 74.8734 149.879 74.8734H157.579L157.695 75.5279C157.91 76.7484 158.409 77.8819 159.132 78.8467C159.856 79.8129 160.805 80.6145 161.917 81.1689C163.029 81.7226 164.244 82 165.46 82C166.676 82 167.89 81.723 169 81.1689C170.115 80.6145 171.064 79.8133 171.788 78.8463C172.511 77.8816 173.01 76.7484 173.226 75.5279L173.341 74.8734H211.106L211.221 75.5279C211.436 76.7484 211.935 77.8816 212.658 78.8463C213.382 79.8133 214.331 80.6145 215.443 81.1689C216.556 81.7226 217.77 82 218.987 82C220.203 82 221.417 81.723 222.527 81.1689C223.642 80.6145 224.59 79.8133 225.315 78.8467C226.038 77.8815 226.537 76.748 226.752 75.5279L226.868 74.8734H234.35C234.705 74.8734 235.049 74.805 235.362 74.6766C235.679 74.547 235.972 74.3548 236.22 74.1095C236.466 73.8661 236.661 73.5767 236.793 73.2624C236.926 72.9454 236.998 72.6049 237 72.2617L236.997 66.0749C237.001 65.1232 236.84 64.1782 236.529 63.2803C236.219 62.3832 235.762 61.5397 235.173 60.7893C234.58 60.0343 233.868 59.3873 233.071 58.8725C232.275 58.358 231.391 57.973 230.454 57.7397L217.32 54.4919L217.15 54.2342C215.908 52.3495 214.44 50.6336 212.785 49.1241C211.129 47.6135 209.283 46.3064 207.289 45.2386C205.294 44.1712 203.178 43.3587 200.995 42.8147C198.808 42.27 196.555 41.9941 194.292 42.0001L174.748 42.0034C172.092 41.9952 169.52 42.6617 167.25 43.8829C164.98 45.1042 163.015 46.8799 161.569 49.0924L161.56 49.1047C160.716 50.3364 159.633 51.3639 158.393 52.136C157.144 52.911 155.741 53.433 154.263 53.6495ZM221.502 80.2605C220.708 80.5865 219.854 80.7593 218.986 80.7593C218.116 80.7593 217.261 80.5865 216.467 80.2602C215.677 79.9339 214.949 79.4559 214.334 78.8459L214.331 78.8429C213.714 78.2302 213.232 77.5093 212.906 76.7267C212.577 75.9363 212.403 75.0884 212.403 74.2275C212.403 73.3665 212.577 72.5183 212.906 71.7309C213.232 70.9453 213.714 70.2239 214.331 69.6113L214.334 69.6083C214.951 68.9964 215.678 68.5181 216.467 68.194C217.264 67.8681 218.119 67.6953 218.986 67.6953C219.854 67.6953 220.708 67.8681 221.502 68.194C222.294 68.5181 223.021 68.9964 223.638 69.6083L223.641 69.6113C224.257 70.2225 224.738 70.9446 225.066 71.7309C225.395 72.5183 225.569 73.3665 225.569 74.2275C225.569 75.0884 225.395 75.9363 225.066 76.7237C224.74 77.5093 224.258 78.2302 223.641 78.8429L223.638 78.8459C223.023 79.4563 222.294 79.935 221.502 80.2605ZM167.979 80.2591C167.185 80.5865 166.33 80.7593 165.46 80.7593C164.59 80.7593 163.735 80.5865 162.941 80.2602C162.147 79.9324 161.419 79.4544 160.805 78.8459C160.189 78.2302 159.707 77.5093 159.38 76.7267C159.051 75.9363 158.877 75.0884 158.877 74.2275C158.877 73.3665 159.051 72.5183 159.38 71.7309C159.708 70.9446 160.19 70.2221 160.805 69.6113L160.808 69.6083C161.426 68.9964 162.152 68.5181 162.941 68.194C163.738 67.8681 164.593 67.6953 165.46 67.6953C166.327 67.6953 167.182 67.8681 167.976 68.194C168.768 68.5181 169.494 68.9964 170.112 69.6083L170.115 69.6113C170.729 70.2217 171.211 70.9435 171.539 71.7282C171.869 72.5153 172.043 73.3643 172.043 74.2275C172.043 75.0907 171.869 75.9397 171.54 76.7263C171.211 77.5108 170.729 78.2324 170.115 78.8429C169.501 79.4544 168.773 79.9324 167.979 80.2591ZM148.058 72.8334C147.592 72.3708 147.303 71.7316 147.303 71.0263L147.38 58.2795C147.377 57.6639 147.595 57.0908 147.965 56.6469C148.336 56.2011 148.864 55.8796 149.477 55.768C150.192 55.5959 153.935 54.9328 154.533 54.9328C156.191 54.6759 157.759 54.0808 159.146 53.2049C160.532 52.329 161.738 51.1708 162.675 49.7883C164.001 47.7584 165.799 46.1313 167.872 45.0157C169.948 43.899 172.306 43.2904 174.748 43.296L194.293 43.2927C198.777 43.2863 203.106 44.4235 206.903 46.5054C210.706 48.5898 213.983 51.6207 216.363 55.3943C216.407 55.4652 216.465 55.5268 216.53 55.5742C216.595 55.6209 216.67 55.6567 216.752 55.6773L230.131 58.9931C230.923 59.1898 231.673 59.5169 232.353 59.9556C233.031 60.3931 233.636 60.9423 234.141 61.5834C234.648 62.2293 235.038 62.9458 235.299 63.7004C235.559 64.4542 235.694 65.2564 235.693 66.0741V72.2793C235.684 72.6418 235.53 72.9685 235.288 73.2018C235.045 73.4371 234.713 73.5823 234.35 73.5823H226.868L226.752 72.9278C226.537 71.7073 226.038 70.5742 225.315 69.6094C224.592 68.6439 223.642 67.8427 222.527 67.2864C221.418 66.7327 220.204 66.4557 218.986 66.4557C217.769 66.4557 216.555 66.7327 215.445 67.2853C214.331 67.8427 213.381 68.6439 212.658 69.6094C211.935 70.5742 211.436 71.7073 211.221 72.9278L211.106 73.5823H173.341L173.225 72.9278C173.01 71.7073 172.511 70.5742 171.788 69.6094C171.064 68.6425 170.115 67.8412 169.003 67.2864C167.893 66.7331 166.678 66.4557 165.46 66.4557C164.242 66.4557 163.027 66.7327 161.917 67.2864C160.804 67.8412 159.856 68.6425 159.132 69.6094C158.409 70.5742 157.909 71.7073 157.694 72.9278L157.579 73.5823H149.879C149.169 73.5823 148.524 73.296 148.058 72.8334Z" fill="white"/>
</svg>
