<svg width="190" height="86" viewBox="0 0 190 86" fill="none" xmlns="http://www.w3.org/2000/svg">
<path fill-rule="evenodd" clip-rule="evenodd" d="M11.4207 54.6443C11.4207 51.2972 14.1443 48.5607 17.3803 48.5607C20.6166 48.5607 23.3402 51.2972 23.3402 54.6443C23.3402 57.9914 20.6166 60.7275 17.3803 60.7275C14.144 60.7275 11.4207 57.991 11.4207 54.6443ZM22.0133 54.6443C22.0133 52.0747 20.0319 49.9278 17.3803 49.9278C14.7355 49.9278 12.742 52.0679 12.742 54.6443C12.742 57.2543 14.7684 59.3322 17.3803 59.3322C19.999 59.3322 22.0133 57.2474 22.0133 54.6443Z" fill="white"/>
<path d="M16.8478 75.3987L16.9842 75.5241L16.9069 75.4532L16.8478 75.3987Z" fill="white"/>
<path fill-rule="evenodd" clip-rule="evenodd" d="M16.9603 80.5782L16.9554 80.5741L16.9467 80.5661L16.9141 80.5367C16.8842 80.51 16.8387 80.4689 16.7785 80.414C16.6581 80.3046 16.479 80.1403 16.2495 79.9269C15.7905 79.4996 15.1308 78.875 14.3374 78.0933C12.7481 76.5272 10.6342 74.3438 8.52334 71.8641C6.3678 69.3323 4.21643 66.6713 2.60128 63.8947C0.985386 61.1174 0 58.3809 0 55.6966C0 45.934 7.83335 38 17.3803 38C26.9299 38 34.7776 45.9363 34.7776 55.6966C34.7776 58.379 33.7892 61.1148 32.1692 63.8924C30.5495 66.6697 28.3939 69.3311 26.2376 71.8641C24.1256 74.3445 22.0152 76.5288 20.4295 78.0952C19.6381 78.8769 18.9803 79.5019 18.5228 79.9296C18.2941 80.143 18.1154 80.3073 17.9953 80.4167C17.9355 80.4716 17.89 80.5127 17.8601 80.5394L17.8275 80.5691L17.8204 80.5756L17.8188 80.5767L17.8173 80.5782C17.5704 80.7993 17.2072 80.7993 16.9603 80.5782ZM19.3249 77.105C20.5943 75.9346 22.4158 74.255 25.2485 70.9273C27.3472 68.4622 29.3486 65.6364 30.8388 63.0173C31.5841 61.7078 32.2207 60.4154 32.6774 59.2194C33.1197 58.0608 33.4564 56.8305 33.4564 55.6966C33.4564 46.6738 26.3069 39.3896 17.3803 39.3896C8.45025 39.3896 1.32089 46.6772 1.32089 55.6966C1.32089 56.8282 1.65492 58.0565 2.09496 59.2155C2.54902 60.4115 3.18296 61.7039 3.92521 63.0139C5.41008 65.6338 7.40656 68.4606 9.50644 70.9273C12.3199 74.2321 14.1431 75.9132 15.4124 77.0836L15.4133 77.0844L15.4888 77.1541C15.6262 77.2809 15.7571 77.4017 15.8818 77.5182L17.3795 78.915L18.8777 77.5189C18.991 77.4134 19.1092 77.3042 19.2327 77.1902C19.2631 77.1621 19.2938 77.1337 19.3249 77.105Z" fill="white"/>
<path fill-rule="evenodd" clip-rule="evenodd" d="M69.6431 54.6443C69.6431 51.2972 72.3667 48.5607 75.6031 48.5607C78.839 48.5607 81.5626 51.2972 81.5626 54.6443C81.5626 57.9914 78.839 60.7275 75.6031 60.7275C72.3667 60.7275 69.6431 57.991 69.6431 54.6443ZM80.2357 54.6443C80.2357 52.0747 78.2543 49.9278 75.6031 49.9278C72.9579 49.9278 70.9644 52.0679 70.9644 54.6443C70.9644 57.2543 72.9908 59.3322 75.6031 59.3322C78.2214 59.3322 80.2357 57.2474 80.2357 54.6443Z" fill="white"/>
<path d="M75.0944 75.4205L75.1611 75.4818L75.1274 75.4513L75.0944 75.4205Z" fill="white"/>
<path fill-rule="evenodd" clip-rule="evenodd" d="M75.1827 80.5782L75.1778 80.5741L75.1766 80.5726L75.1691 80.5661L75.1365 80.5367C75.1066 80.51 75.0611 80.4689 75.0009 80.414C74.8805 80.3046 74.7014 80.1403 74.4719 79.9269C74.0129 79.4996 73.3532 78.875 72.5598 78.0933C70.9704 76.5272 68.8566 74.3438 66.7457 71.8641C64.5905 69.3323 62.4388 66.6713 60.8236 63.8947C59.2077 61.1174 58.2224 58.3809 58.2224 55.6966C58.2224 45.934 66.0557 38 75.6031 38C85.1523 38 93 45.9363 93 55.6966C93 58.379 92.0116 61.1148 90.3915 63.8924C88.7722 66.6697 86.6163 69.3311 84.46 71.8641C82.3484 74.3445 80.2375 76.5288 78.6519 78.0952C77.8605 78.8769 77.2026 79.5019 76.7452 79.9296C76.5164 80.143 76.3381 80.3073 76.2177 80.4167C76.1578 80.4716 76.1124 80.5127 76.0829 80.5394L76.0499 80.5691L76.0427 80.5756L76.0412 80.5767L76.0397 80.5782C75.7928 80.7993 75.4296 80.7993 75.1827 80.5782ZM77.5473 77.105C78.8167 75.9346 80.6382 74.255 83.4712 70.9273C85.5696 68.4622 87.5714 65.6364 89.0612 63.0173C89.8065 61.7078 90.4434 60.4154 90.8997 59.2194C91.3421 58.0608 91.6787 56.8305 91.6787 55.6966C91.6787 46.6738 84.5293 39.3896 75.6031 39.3896C66.673 39.3896 59.5436 46.6772 59.5436 55.6966C59.5436 56.8282 59.8776 58.0565 60.3177 59.2155C60.7717 60.4115 61.4053 61.7039 62.1476 63.0139C63.6324 65.6338 65.6289 68.4606 67.7288 70.9273C70.5414 74.2317 72.3648 75.9129 73.6338 77.0826L73.716 77.1584C73.8517 77.2837 73.9811 77.4032 74.1042 77.5182L75.6019 78.915L77.1004 77.5189C77.2184 77.4088 77.3419 77.2948 77.4712 77.1753L77.5473 77.105Z" fill="white"/>
<path d="M59.2608 84.598L59.2695 84.5973C59.291 84.5969 59.3123 84.5969 59.3338 84.598L59.388 84.6007H67.1861C67.5303 84.6007 67.8492 84.8908 67.8492 85.2989C67.8492 85.7056 67.5311 85.996 67.1861 85.996H59.3838L59.3263 85.999C58.9813 86.0173 58.6476 85.7434 58.6272 85.3363C58.6064 84.9274 58.9124 84.6163 59.2608 84.598Z" fill="white"/>
<path d="M25.6874 84.598C25.6654 84.5969 25.6442 84.5969 25.6226 84.5973L25.6143 84.598C25.2659 84.6163 24.9599 84.9274 24.9803 85.3363C25.0012 85.7434 25.3344 86.0173 25.6794 85.999L25.7374 85.996H33.5563C33.9009 85.996 34.2194 85.7056 34.2194 85.2989C34.2194 84.8908 33.9006 84.6007 33.5563 84.6007H25.7412L25.6874 84.598Z" fill="white"/>
<path d="M42.5127 84.5981C42.4907 84.597 42.4695 84.597 42.4479 84.5974L42.4396 84.5981C42.0912 84.6164 41.7852 84.9275 41.8056 85.3364C41.8265 85.7435 42.1597 86.0174 42.5047 85.9991L42.5627 85.9961H50.3816C50.7262 85.9961 51.0447 85.7057 51.0447 85.299C51.0447 84.8909 50.7259 84.6008 50.3816 84.6008H42.5664L42.5127 84.5981Z" fill="white"/>
<path d="M22.7702 7.512C25.1382 7.512 26.8822 7.984 28.0022 8.928C29.1382 9.872 29.7062 11.136 29.7062 12.72C29.7062 13.744 29.4502 14.68 28.9382 15.528C28.4262 16.36 27.6422 17.032 26.5862 17.544C25.5462 18.04 24.2582 18.288 22.7222 18.288C21.5382 18.288 20.3702 18.136 19.2182 17.832C18.0822 17.512 17.1142 17.064 16.3142 16.488L17.8502 13.512C18.4902 13.992 19.2262 14.368 20.0582 14.64C20.8902 14.896 21.7462 15.024 22.6262 15.024C23.6022 15.024 24.3702 14.832 24.9302 14.448C25.4902 14.064 25.7702 13.528 25.7702 12.84C25.7702 12.12 25.4742 11.576 24.8822 11.208C24.3062 10.84 23.2982 10.656 21.8582 10.656H17.5622L18.4262 1.2H28.6742V4.32H21.6662L21.4022 7.512H22.7702ZM38.4837 18.288C37.0917 18.288 35.8517 17.944 34.7637 17.256C33.6757 16.568 32.8197 15.576 32.1957 14.28C31.5877 12.968 31.2837 11.408 31.2837 9.6C31.2837 7.792 31.5877 6.24 32.1957 4.944C32.8197 3.632 33.6757 2.632 34.7637 1.944C35.8517 1.256 37.0917 0.912 38.4837 0.912C39.8757 0.912 41.1157 1.256 42.2037 1.944C43.2917 2.632 44.1397 3.632 44.7477 4.944C45.3717 6.24 45.6837 7.792 45.6837 9.6C45.6837 11.408 45.3717 12.968 44.7477 14.28C44.1397 15.576 43.2917 16.568 42.2037 17.256C41.1157 17.944 39.8757 18.288 38.4837 18.288ZM38.4837 15C39.5077 15 40.3077 14.56 40.8837 13.68C41.4757 12.8 41.7717 11.44 41.7717 9.6C41.7717 7.76 41.4757 6.4 40.8837 5.52C40.3077 4.64 39.5077 4.2 38.4837 4.2C37.4757 4.2 36.6757 4.64 36.0837 5.52C35.5077 6.4 35.2197 7.76 35.2197 9.6C35.2197 11.44 35.5077 12.8 36.0837 13.68C36.6757 14.56 37.4757 15 38.4837 15ZM54.7727 18.288C53.3807 18.288 52.1407 17.944 51.0527 17.256C49.9647 16.568 49.1087 15.576 48.4847 14.28C47.8767 12.968 47.5727 11.408 47.5727 9.6C47.5727 7.792 47.8767 6.24 48.4847 4.944C49.1087 3.632 49.9647 2.632 51.0527 1.944C52.1407 1.256 53.3807 0.912 54.7727 0.912C56.1647 0.912 57.4047 1.256 58.4927 1.944C59.5807 2.632 60.4287 3.632 61.0367 4.944C61.6607 6.24 61.9727 7.792 61.9727 9.6C61.9727 11.408 61.6607 12.968 61.0367 14.28C60.4287 15.576 59.5807 16.568 58.4927 17.256C57.4047 17.944 56.1647 18.288 54.7727 18.288ZM54.7727 15C55.7967 15 56.5967 14.56 57.1727 13.68C57.7647 12.8 58.0607 11.44 58.0607 9.6C58.0607 7.76 57.7647 6.4 57.1727 5.52C56.5967 4.64 55.7967 4.2 54.7727 4.2C53.7647 4.2 52.9647 4.64 52.3727 5.52C51.7967 6.4 51.5087 7.76 51.5087 9.6C51.5087 11.44 51.7967 12.8 52.3727 13.68C52.9647 14.56 53.7647 15 54.7727 15Z" fill="white"/>
<path d="M78.264 9.52V18H76.872V11.808L73.704 17.04H73.032L69.896 11.792V18H68.488V9.52H70.072L73.4 15.248L76.824 9.52H78.264Z" fill="white"/>
<path d="M155.883 7.464C156.955 7.464 157.931 7.68 158.811 8.112C159.691 8.544 160.387 9.16 160.899 9.96C161.411 10.744 161.667 11.656 161.667 12.696C161.667 13.816 161.387 14.8 160.827 15.648C160.267 16.496 159.499 17.152 158.523 17.616C157.563 18.064 156.491 18.288 155.307 18.288C152.955 18.288 151.115 17.568 149.787 16.128C148.459 14.688 147.795 12.632 147.795 9.96C147.795 8.056 148.155 6.424 148.875 5.064C149.595 3.704 150.595 2.672 151.875 1.968C153.171 1.264 154.667 0.912 156.363 0.912C157.259 0.912 158.115 1.016 158.931 1.224C159.763 1.416 160.467 1.696 161.043 2.064L159.603 4.92C158.771 4.36 157.723 4.08 156.459 4.08C155.035 4.08 153.907 4.496 153.075 5.328C152.243 6.16 151.795 7.368 151.731 8.952C152.723 7.96 154.107 7.464 155.883 7.464ZM155.091 15.384C155.923 15.384 156.595 15.16 157.107 14.712C157.635 14.264 157.899 13.656 157.899 12.888C157.899 12.12 157.635 11.512 157.107 11.064C156.595 10.6 155.907 10.368 155.043 10.368C154.195 10.368 153.499 10.608 152.955 11.088C152.411 11.552 152.139 12.152 152.139 12.888C152.139 13.624 152.403 14.224 152.931 14.688C153.459 15.152 154.179 15.384 155.091 15.384Z" fill="white"/>
<path d="M173.784 18L171.336 14.752L168.856 18H167.144L170.488 13.664L167.304 9.52H169.016L171.352 12.576L173.672 9.52H175.352L172.152 13.664L175.528 18H173.784ZM182.92 13.6C184.019 13.8773 184.568 14.5653 184.568 15.664C184.568 16.4107 184.286 16.9867 183.72 17.392C183.166 17.7973 182.334 18 181.224 18H177.144V9.52H181.08C182.083 9.52 182.867 9.712 183.432 10.096C183.998 10.4693 184.28 11.0027 184.28 11.696C184.28 12.144 184.158 12.5333 183.912 12.864C183.678 13.184 183.347 13.4293 182.92 13.6ZM178.648 13.168H180.952C181.539 13.168 181.982 13.0613 182.28 12.848C182.59 12.6347 182.744 12.3253 182.744 11.92C182.744 11.1093 182.147 10.704 180.952 10.704H178.648V13.168ZM181.112 16.816C181.752 16.816 182.232 16.7147 182.552 16.512C182.872 16.3093 183.032 15.9947 183.032 15.568C183.032 15.1307 182.883 14.8053 182.584 14.592C182.296 14.3787 181.838 14.272 181.208 14.272H178.648V16.816H181.112Z" fill="white"/>
<path d="M173.895 41.2892C173.396 41.1889 172.895 41.1111 172.404 41.0621C171.937 41.0153 171.476 40.9939 171.032 41.0015C170.339 41.0138 169.638 41.0969 168.948 41.244C168.247 41.3935 167.556 41.6099 166.891 41.8854C166.226 42.1616 165.586 42.498 164.988 42.8876C164.4 43.2708 163.848 43.7071 163.352 44.1903C162.542 44.9776 161.674 46.1059 160.751 47.448C159.82 48.8019 158.84 50.3605 157.805 52.006L156.627 53.8753C155.982 54.8909 155.321 55.9177 154.652 56.92C153.979 57.9299 153.294 58.9226 152.606 59.8651C151.915 60.8103 151.217 61.711 150.518 62.5347C149.819 63.3577 149.119 64.1055 148.424 64.7457L148.267 64.9369L148.125 64.9442C148.083 64.9461 148.04 64.9537 148.001 64.966C147.959 64.9786 147.919 64.9967 147.884 65.0178C147.849 65.04 147.815 65.0663 147.786 65.097C147.757 65.1269 147.73 65.1618 147.709 65.1989L145.069 69.7853C145.034 69.8455 145.013 69.9099 145.004 69.9738C144.996 70.0401 145 70.1079 145.017 70.1715C145.034 70.2355 145.063 70.2965 145.103 70.3493C145.142 70.4011 145.193 70.4458 145.251 70.4799L171.64 85.9279L171.702 85.9597L171.764 85.9812L171.83 85.9946L171.9 85.9988C174.01 85.9988 175.791 85.9647 177.533 85.9314L177.651 85.9291C181.17 85.8616 184.562 85.7962 189.472 86L189.574 85.9939L189.672 85.9678L189.764 85.9229L189.844 85.8605L189.91 85.7839L189.959 85.695L189.99 85.595L190 85.4962C190 84.8843 189.992 84.3012 189.984 83.7123C189.967 82.4813 189.95 81.2304 190 80.0535C190 79.2972 189.885 78.5559 189.669 77.8467C189.448 77.1211 189.116 76.4238 188.691 75.7736C188.261 75.1158 187.733 74.5043 187.12 73.956C186.513 73.4139 185.82 72.932 185.057 72.5266C184.678 72.3259 184.29 72.1466 183.896 71.9906C183.492 71.8313 183.081 71.6941 182.667 71.5803C182.247 71.465 181.818 71.3715 181.384 71.3006C180.951 71.2298 180.51 71.1811 180.068 71.1554C179.868 71.1439 179.67 71.1374 179.477 71.1362C179.278 71.1351 179.076 71.1385 178.875 71.1466C178.684 71.1542 178.484 71.1684 178.279 71.1861C178.072 71.2041 177.872 71.2259 177.682 71.2504L177.354 71.2926L177.335 70.9635C177.244 69.4467 177.178 67.9651 177.181 66.4847C177.184 65.0043 177.255 63.5266 177.435 62.0202C177.616 60.5122 177.908 58.9697 178.352 57.3587C178.796 55.7511 179.393 54.0745 180.183 52.2957C180.312 52.0037 180.442 51.7271 180.568 51.4631L180.941 50.6999C181.141 50.2957 181.333 49.9065 181.507 49.5234C181.678 49.146 181.831 48.7763 181.951 48.4085C182.054 48.0943 182.128 47.7706 182.162 47.4461C182.194 47.1442 182.193 46.8384 182.151 46.5361C182.112 46.2557 182.036 45.976 181.922 45.7051C181.812 45.4473 181.665 45.1945 181.477 44.9519C181.267 44.6803 181.006 44.419 180.707 44.1703C180.405 43.9198 180.061 43.6811 179.687 43.4551C179.305 43.2248 178.89 43.0064 178.451 42.8011C178.013 42.5953 177.546 42.3995 177.058 42.2137C176.541 42.016 176.007 41.8352 175.467 41.6777C174.95 41.5268 174.423 41.3954 173.895 41.2892ZM167.283 42.8329C167.895 42.5792 168.531 42.3785 169.17 42.2402C169.798 42.1042 170.432 42.0267 171.053 42.016C171.452 42.0091 171.88 42.031 172.322 42.0773C172.779 42.1252 173.255 42.2011 173.737 42.2988C174.232 42.3992 174.732 42.524 175.224 42.6673C175.726 42.8137 176.221 42.98 176.694 43.1604C177.12 43.3229 177.536 43.5045 177.929 43.6941C178.345 43.8953 178.734 44.106 179.082 44.3148C179.451 44.537 179.778 44.7596 180.045 44.9703C180.319 45.186 180.535 45.3925 180.677 45.5749C180.841 45.7871 180.965 45.986 181.052 46.1814C181.14 46.3806 181.192 46.5775 181.21 46.7814C181.229 46.9798 181.215 47.1825 181.176 47.3989C181.137 47.6119 181.074 47.8388 180.992 48.0893C180.803 48.6602 180.474 49.3318 180.09 50.1157L179.677 50.9662C179.537 51.2589 179.394 51.5647 179.254 51.8788L178.951 52.5957L178.735 52.5834C178.516 52.5707 178.236 52.5478 177.926 52.5087C177.69 52.4796 177.435 52.4393 177.173 52.3857C176.849 52.3194 176.518 52.2313 176.207 52.1156C175.935 52.0145 175.677 51.8915 175.453 51.7432L175.387 51.7037L175.319 51.6746L175.251 51.6574L175.179 51.6493C175.123 51.6478 175.067 51.6555 175.015 51.6708C174.961 51.6869 174.911 51.7114 174.868 51.7421C174.823 51.7742 174.783 51.8141 174.75 51.8593C174.719 51.9029 174.693 51.9532 174.676 52.0068C174.66 52.0593 174.653 52.116 174.655 52.17C174.656 52.2259 174.667 52.2815 174.686 52.3336C174.705 52.3846 174.733 52.4336 174.768 52.4761C174.802 52.5183 174.844 52.5562 174.891 52.5857C175.159 52.7627 175.436 52.9083 175.716 53.0282C175.997 53.1489 176.282 53.2447 176.56 53.3197C176.847 53.3971 177.125 53.4542 177.384 53.4952C177.643 53.5366 177.896 53.5638 178.128 53.5822L178.536 53.614L178.193 54.535L178.004 55.0737L177.828 55.6036L177.591 56.3556L177.354 56.3457C177.181 56.3384 176.968 56.3269 176.737 56.3089C176.501 56.2905 176.233 56.2633 175.942 56.2242C175.654 56.1859 175.346 56.1338 175.031 56.066C174.714 55.9978 174.389 55.9127 174.072 55.8082L174.003 55.7898L173.93 55.781C173.865 55.7764 173.802 55.784 173.745 55.8009C173.685 55.8185 173.629 55.848 173.581 55.8852C173.533 55.9223 173.49 55.9695 173.458 56.0227C173.427 56.0729 173.404 56.1307 173.392 56.1928C173.381 56.2545 173.382 56.3181 173.393 56.3775C173.404 56.4396 173.427 56.4986 173.458 56.5503C173.489 56.602 173.532 56.6491 173.581 56.6874C173.628 56.7238 173.684 56.7533 173.745 56.7714L173.753 56.7736C174.038 56.8678 174.328 56.948 174.612 57.0143C174.903 57.0821 175.186 57.1368 175.456 57.1805C175.728 57.2246 175.995 57.2594 176.245 57.2866C176.49 57.3131 176.725 57.333 176.939 57.3475L177.306 57.3721L177.057 58.3904L176.911 59.049L176.781 59.7023L176.63 60.56L176.416 60.598C176.293 60.6194 176.072 60.6566 175.785 60.6938C175.501 60.7305 175.156 60.7669 174.788 60.7868C174.382 60.8087 173.944 60.8114 173.521 60.7734C173.166 60.742 172.822 60.6815 172.52 60.5819C172.484 60.5673 172.443 60.5589 172.405 60.5486L172.302 60.5417L172.201 60.5551L172.105 60.5888L172.016 60.6424L171.94 60.7122L171.88 60.7957L171.838 60.8888C171.828 60.9217 171.82 60.9558 171.816 60.9892L171.815 61.0926L171.834 61.1945L171.873 61.288L171.93 61.3738L172.003 61.4451L172.091 61.5006L172.197 61.5409C172.524 61.6478 172.857 61.7225 173.187 61.7708C173.568 61.8259 173.944 61.8489 174.301 61.8489C174.641 61.8489 174.968 61.8297 175.265 61.8014C175.563 61.773 175.835 61.7343 176.066 61.696L176.469 61.6286L176.422 62.0343C176.384 62.3657 176.35 62.7025 176.322 63.0427C176.294 63.3837 176.27 63.717 176.252 64.0419C176.234 64.3802 176.219 64.7135 176.208 65.0392L176.184 66.2533C175.943 66.3246 175.706 66.3885 175.462 66.4498L175.076 66.533L174.594 66.6173C174.34 66.6575 174.071 66.6901 173.806 66.7096C173.556 66.7284 173.301 66.7376 173.052 66.7337C172.821 66.7303 172.594 66.7149 172.387 66.6866C172.188 66.659 172.003 66.6192 171.84 66.5655C171.813 66.5521 171.756 66.5407 171.724 66.5318L171.622 66.5246L171.522 66.538L171.426 66.5729L171.337 66.6257L171.26 66.6954L171.2 66.7786L171.158 66.8713L171.137 66.9721L171.136 67.0755L171.154 67.1763L171.193 67.2712L171.25 67.3559L171.325 67.4287L171.411 67.4839L171.522 67.5257C171.786 67.613 172.06 67.6728 172.336 67.7103C172.612 67.7479 172.89 67.7636 173.165 67.7636C173.445 67.764 173.722 67.7471 173.986 67.7219C174.252 67.6962 174.509 67.6601 174.751 67.6222L175.047 67.5705L175.324 67.5146L176.183 67.3131L176.213 68.5758L176.244 69.4612L176.285 70.3432L176.351 71.4864L175.8 71.6362L175.499 71.7278L175.2 71.8278L174.901 71.9362L174.809 71.9807L174.73 72.0411L174.664 72.1163L174.614 72.2025L174.581 72.2979L174.568 72.3982L174.575 72.4971L174.602 72.5948L174.646 72.6845L174.708 72.763L174.785 72.8285L174.871 72.8771L174.967 72.9078L175.067 72.9197L175.166 72.9109L175.264 72.8833C176.011 72.5994 176.788 72.399 177.576 72.2806C178.379 72.1603 179.196 72.1243 180.006 72.1707C180.814 72.217 181.619 72.3477 182.395 72.5596C183.159 72.7684 183.896 73.0561 184.583 73.4208C185.201 73.7488 185.763 74.1288 186.26 74.5491C186.769 74.9794 187.212 75.4525 187.584 75.9567C187.96 76.4682 188.266 77.0161 188.492 77.5858C188.719 78.1543 188.868 78.7459 188.933 79.3478L188.97 79.6888H173.724C165.551 74.9131 157.335 70.1999 149.147 65.4484L149.441 65.1652C150.149 64.4829 150.852 63.7132 151.546 62.8822C152.24 62.0508 152.925 61.1585 153.596 60.2325C154.269 59.3042 154.931 58.3379 155.579 57.3609C156.227 56.3843 156.864 55.3936 157.483 54.4174L158.329 53.083C159.456 51.3026 160.527 49.6115 161.489 48.1997C162.459 46.7764 163.329 45.6216 164.054 44.9171C164.497 44.4868 164.997 44.0937 165.535 43.747C166.084 43.3934 166.673 43.0861 167.283 42.8329ZM146.351 69.5949L148.333 66.1457L173.329 80.6354L173.385 80.6638L173.448 80.6853L173.515 80.6979C178.344 80.9707 184.058 80.7017 188.986 80.7017V84.9965L188.667 84.9858C184.155 84.8268 180.824 84.8782 177.405 84.9307L177.234 84.9333C175.601 84.9578 173.94 84.9835 172.115 84.9858L172.033 84.9862C163.427 79.9347 154.809 74.9028 146.199 69.8582L146.351 69.5949Z" fill="white"/>
</svg>
