<svg width="252" height="86" viewBox="0 0 252 86" fill="none" xmlns="http://www.w3.org/2000/svg">
<path d="M9.43025 7.464C10.5023 7.464 11.4783 7.68 12.3583 8.112C13.2383 8.544 13.9343 9.16 14.4463 9.96C14.9583 10.744 15.2143 11.656 15.2143 12.696C15.2143 13.816 14.9343 14.8 14.3743 15.648C13.8143 16.496 13.0463 17.152 12.0703 17.616C11.1103 18.064 10.0383 18.288 8.85425 18.288C6.50225 18.288 4.66225 17.568 3.33425 16.128C2.00625 14.688 1.34225 12.632 1.34225 9.96C1.34225 8.056 1.70225 6.424 2.42225 5.064C3.14225 3.704 4.14225 2.672 5.42225 1.968C6.71825 1.264 8.21425 0.912 9.91025 0.912C10.8063 0.912 11.6623 1.016 12.4783 1.224C13.3103 1.416 14.0143 1.696 14.5903 2.064L13.1503 4.92C12.3183 4.36 11.2703 4.08 10.0063 4.08C8.58225 4.08 7.45425 4.496 6.62225 5.328C5.79025 6.16 5.34225 7.368 5.27825 8.952C6.27025 7.96 7.65425 7.464 9.43025 7.464ZM8.63825 15.384C9.47025 15.384 10.1423 15.16 10.6543 14.712C11.1823 14.264 11.4463 13.656 11.4463 12.888C11.4463 12.12 11.1823 11.512 10.6543 11.064C10.1423 10.6 9.45425 10.368 8.59025 10.368C7.74225 10.368 7.04625 10.608 6.50225 11.088C5.95825 11.552 5.68625 12.152 5.68625 12.888C5.68625 13.624 5.95025 14.224 6.47825 14.688C7.00625 15.152 7.72625 15.384 8.63825 15.384ZM19.0899 13.536C19.7619 13.536 20.3139 13.752 20.7459 14.184C21.1779 14.6 21.3939 15.152 21.3939 15.84C21.3939 16.16 21.3539 16.48 21.2739 16.8C21.1939 17.12 21.0179 17.6 20.7459 18.24L19.3779 21.696H17.0019L18.0579 17.88C17.6579 17.72 17.3379 17.464 17.0979 17.112C16.8739 16.744 16.7619 16.32 16.7619 15.84C16.7619 15.152 16.9779 14.6 17.4099 14.184C17.8579 13.752 18.4179 13.536 19.0899 13.536ZM31.2215 8.04C32.6935 8.28 33.8215 8.832 34.6055 9.696C35.3895 10.544 35.7815 11.6 35.7815 12.864C35.7815 13.84 35.5255 14.744 35.0135 15.576C34.5015 16.392 33.7175 17.048 32.6615 17.544C31.6215 18.04 30.3415 18.288 28.8215 18.288C27.6375 18.288 26.4695 18.136 25.3175 17.832C24.1815 17.512 23.2135 17.064 22.4135 16.488L23.9255 13.512C24.5655 13.992 25.3015 14.368 26.1335 14.64C26.9815 14.896 27.8455 15.024 28.7255 15.024C29.7015 15.024 30.4695 14.84 31.0295 14.472C31.5895 14.088 31.8695 13.552 31.8695 12.864C31.8695 11.488 30.8215 10.8 28.7255 10.8H26.9495V8.232L30.4055 4.32H23.2535V1.2H35.0135V3.72L31.2215 8.04ZM37.8886 9.744H44.6806V12.744H37.8886V9.744ZM52.7988 1.2V18H48.9108V4.32H45.5508V1.2H52.7988ZM62.9173 18.288C61.5253 18.288 60.2853 17.944 59.1973 17.256C58.1093 16.568 57.2533 15.576 56.6293 14.28C56.0213 12.968 55.7173 11.408 55.7173 9.6C55.7173 7.792 56.0213 6.24 56.6293 4.944C57.2533 3.632 58.1093 2.632 59.1973 1.944C60.2853 1.256 61.5253 0.912 62.9173 0.912C64.3093 0.912 65.5493 1.256 66.6373 1.944C67.7253 2.632 68.5733 3.632 69.1813 4.944C69.8053 6.24 70.1173 7.792 70.1173 9.6C70.1173 11.408 69.8053 12.968 69.1813 14.28C68.5733 15.576 67.7253 16.568 66.6373 17.256C65.5493 17.944 64.3093 18.288 62.9173 18.288ZM62.9173 15C63.9413 15 64.7413 14.56 65.3173 13.68C65.9093 12.8 66.2053 11.44 66.2053 9.6C66.2053 7.76 65.9093 6.4 65.3173 5.52C64.7413 4.64 63.9413 4.2 62.9173 4.2C61.9093 4.2 61.1093 4.64 60.5173 5.52C59.9413 6.4 59.6533 7.76 59.6533 9.6C59.6533 11.44 59.9413 12.8 60.5173 13.68C61.1093 14.56 61.9093 15 62.9173 15ZM73.9336 13.536C74.6056 13.536 75.1576 13.752 75.5896 14.184C76.0216 14.6 76.2376 15.152 76.2376 15.84C76.2376 16.16 76.1976 16.48 76.1176 16.8C76.0376 17.12 75.8616 17.6 75.5896 18.24L74.2216 21.696H71.8456L72.9016 17.88C72.5016 17.72 72.1816 17.464 71.9416 17.112C71.7176 16.744 71.6056 16.32 71.6056 15.84C71.6056 15.152 71.8216 14.6 72.2536 14.184C72.7016 13.752 73.2616 13.536 73.9336 13.536ZM93.3669 14.472H90.6309V18H86.8389V14.472H77.7909V11.856L85.7109 1.2H89.7909L82.4469 11.304H86.9589V8.16H90.6309V11.304H93.3669V14.472Z" fill="white"/>
<path d="M103.784 14.416H102.024V18H100.488V9.52H102.024V13.104H103.816L106.568 9.52H108.216L105 13.6L108.44 18H106.632L103.784 14.416ZM119.827 9.52V18H118.435V11.808L115.267 17.04H114.595L111.459 11.792V18H110.051V9.52H111.635L114.963 15.248L118.387 9.52H119.827Z" fill="white"/>
<path fill-rule="evenodd" clip-rule="evenodd" d="M26.4207 54.6443C26.4207 51.2972 29.1443 48.5607 32.3803 48.5607C35.6166 48.5607 38.3402 51.2972 38.3402 54.6443C38.3402 57.9914 35.6166 60.7275 32.3803 60.7275C29.144 60.7275 26.4207 57.991 26.4207 54.6443ZM37.0133 54.6443C37.0133 52.0747 35.0319 49.9278 32.3803 49.9278C29.7355 49.9278 27.742 52.0679 27.742 54.6443C27.742 57.2543 29.7684 59.3322 32.3803 59.3322C34.999 59.3322 37.0133 57.2474 37.0133 54.6443Z" fill="white"/>
<path d="M31.8478 75.3987L31.9842 75.5241L31.9069 75.4532L31.8478 75.3987Z" fill="white"/>
<path fill-rule="evenodd" clip-rule="evenodd" d="M31.9603 80.5782L31.9554 80.5741L31.9467 80.5661L31.9141 80.5367C31.8842 80.51 31.8387 80.4689 31.7785 80.414C31.6581 80.3046 31.479 80.1403 31.2495 79.9269C30.7905 79.4996 30.1308 78.875 29.3374 78.0933C27.7481 76.5272 25.6342 74.3438 23.5233 71.8641C21.3678 69.3323 19.2164 66.6713 17.6013 63.8947C15.9854 61.1174 15 58.3809 15 55.6966C15 45.934 22.8334 38 32.3803 38C41.9299 38 49.7776 45.9363 49.7776 55.6966C49.7776 58.379 48.7892 61.1148 47.1692 63.8924C45.5495 66.6697 43.3939 69.3311 41.2376 71.8641C39.1256 74.3445 37.0152 76.5288 35.4295 78.0952C34.6381 78.8769 33.9803 79.5019 33.5228 79.9296C33.2941 80.143 33.1154 80.3073 32.9953 80.4167C32.9355 80.4716 32.89 80.5127 32.8601 80.5394L32.8275 80.5691L32.8204 80.5756L32.8188 80.5767L32.8173 80.5782C32.5704 80.7993 32.2072 80.7993 31.9603 80.5782ZM34.3249 77.105C35.5943 75.9346 37.4158 74.255 40.2485 70.9273C42.3472 68.4622 44.3486 65.6364 45.8388 63.0173C46.5841 61.7078 47.2207 60.4154 47.6774 59.2194C48.1197 58.0608 48.4564 56.8305 48.4564 55.6966C48.4564 46.6738 41.3069 39.3896 32.3803 39.3896C23.4502 39.3896 16.3209 46.6772 16.3209 55.6966C16.3209 56.8282 16.6549 58.0565 17.095 59.2155C17.549 60.4115 18.183 61.7039 18.9252 63.0139C20.4101 65.6338 22.4066 68.4606 24.5064 70.9273C27.3199 74.2321 29.1431 75.9132 30.4124 77.0836L30.4133 77.0844L30.4888 77.1541C30.6262 77.2809 30.7571 77.4017 30.8818 77.5182L32.3795 78.915L33.8777 77.5189C33.991 77.4134 34.1092 77.3042 34.2327 77.1902C34.2631 77.1621 34.2938 77.1337 34.3249 77.105Z" fill="white"/>
<path fill-rule="evenodd" clip-rule="evenodd" d="M84.6431 54.6443C84.6431 51.2972 87.3667 48.5607 90.6031 48.5607C93.839 48.5607 96.5626 51.2972 96.5626 54.6443C96.5626 57.9914 93.839 60.7275 90.6031 60.7275C87.3667 60.7275 84.6431 57.991 84.6431 54.6443ZM95.2357 54.6443C95.2357 52.0747 93.2543 49.9278 90.6031 49.9278C87.9579 49.9278 85.9644 52.0679 85.9644 54.6443C85.9644 57.2543 87.9908 59.3322 90.6031 59.3322C93.2214 59.3322 95.2357 57.2474 95.2357 54.6443Z" fill="white"/>
<path d="M90.0944 75.4205L90.1611 75.4818L90.1274 75.4513L90.0944 75.4205Z" fill="white"/>
<path fill-rule="evenodd" clip-rule="evenodd" d="M90.1827 80.5782L90.1778 80.5741L90.1766 80.5726L90.1691 80.5661L90.1365 80.5367C90.1066 80.51 90.0611 80.4689 90.0009 80.414C89.8805 80.3046 89.7014 80.1403 89.4719 79.9269C89.0129 79.4996 88.3532 78.875 87.5598 78.0933C85.9704 76.5272 83.8566 74.3438 81.7457 71.8641C79.5905 69.3323 77.4388 66.6713 75.8236 63.8947C74.2077 61.1174 73.2224 58.3809 73.2224 55.6966C73.2224 45.934 81.0557 38 90.6031 38C100.152 38 108 45.9363 108 55.6966C108 58.379 107.012 61.1148 105.392 63.8924C103.772 66.6697 101.616 69.3311 99.46 71.8641C97.3484 74.3445 95.2375 76.5288 93.6519 78.0952C92.8605 78.8769 92.2026 79.5019 91.7452 79.9296C91.5164 80.143 91.3381 80.3073 91.2177 80.4167C91.1578 80.4716 91.1124 80.5127 91.0829 80.5394L91.0499 80.5691L91.0427 80.5756L91.0412 80.5767L91.0397 80.5782C90.7928 80.7993 90.4296 80.7993 90.1827 80.5782ZM92.5473 77.105C93.8167 75.9346 95.6382 74.255 98.4712 70.9273C100.57 68.4622 102.571 65.6364 104.061 63.0173C104.806 61.7078 105.443 60.4154 105.9 59.2194C106.342 58.0608 106.679 56.8305 106.679 55.6966C106.679 46.6738 99.5293 39.3896 90.6031 39.3896C81.673 39.3896 74.5436 46.6772 74.5436 55.6966C74.5436 56.8282 74.8776 58.0565 75.3177 59.2155C75.7717 60.4115 76.4053 61.7039 77.1476 63.0139C78.6324 65.6338 80.6289 68.4606 82.7288 70.9273C85.5414 74.2317 87.3648 75.9129 88.6338 77.0826L88.716 77.1584C88.8517 77.2837 88.9811 77.4032 89.1042 77.5182L90.6019 78.915L92.1004 77.5189C92.2184 77.4088 92.3419 77.2948 92.4712 77.1753L92.5473 77.105Z" fill="white"/>
<path d="M74.2608 84.598L74.2695 84.5973C74.291 84.5969 74.3123 84.5969 74.3338 84.598L74.388 84.6007H82.1861C82.5303 84.6007 82.8492 84.8908 82.8492 85.2989C82.8492 85.7056 82.5311 85.996 82.1861 85.996H74.3838L74.3263 85.999C73.9813 86.0173 73.6476 85.7434 73.6272 85.3363C73.6064 84.9274 73.9124 84.6163 74.2608 84.598Z" fill="white"/>
<path d="M40.6874 84.598C40.6654 84.5969 40.6442 84.5969 40.6226 84.5973L40.6143 84.598C40.2659 84.6163 39.9599 84.9274 39.9803 85.3363C40.0012 85.7434 40.3344 86.0173 40.6794 85.999L40.7374 85.996H48.5563C48.9009 85.996 49.2194 85.7056 49.2194 85.2989C49.2194 84.8908 48.9006 84.6007 48.5563 84.6007H40.7412L40.6874 84.598Z" fill="white"/>
<path d="M57.5127 84.5981C57.4907 84.597 57.4695 84.597 57.4479 84.5974L57.4396 84.5981C57.0912 84.6164 56.7852 84.9275 56.8056 85.3364C56.8265 85.7435 57.1597 86.0174 57.5047 85.9991L57.5627 85.9961H65.3816C65.7262 85.9961 66.0447 85.7057 66.0447 85.299C66.0447 84.8909 65.7259 84.6008 65.3816 84.6008H57.5664L57.5127 84.5981Z" fill="white"/>
<path d="M194.059 7.512C196.427 7.512 198.171 7.984 199.291 8.928C200.427 9.872 200.995 11.136 200.995 12.72C200.995 13.744 200.739 14.68 200.227 15.528C199.715 16.36 198.931 17.032 197.875 17.544C196.835 18.04 195.547 18.288 194.011 18.288C192.827 18.288 191.659 18.136 190.507 17.832C189.371 17.512 188.403 17.064 187.603 16.488L189.139 13.512C189.779 13.992 190.515 14.368 191.347 14.64C192.179 14.896 193.035 15.024 193.915 15.024C194.891 15.024 195.659 14.832 196.219 14.448C196.779 14.064 197.059 13.528 197.059 12.84C197.059 12.12 196.763 11.576 196.171 11.208C195.595 10.84 194.587 10.656 193.147 10.656H188.851L189.715 1.2H199.963V4.32H192.955L192.691 7.512H194.059Z" fill="white"/>
<path d="M212.784 18L210.336 14.752L207.856 18H206.144L209.488 13.664L206.304 9.52H208.016L210.352 12.576L212.672 9.52H214.352L211.152 13.664L214.528 18H212.784ZM221.92 13.6C223.019 13.8773 223.568 14.5653 223.568 15.664C223.568 16.4107 223.286 16.9867 222.72 17.392C222.166 17.7973 221.334 18 220.224 18H216.144V9.52H220.08C221.083 9.52 221.867 9.712 222.432 10.096C222.998 10.4693 223.28 11.0027 223.28 11.696C223.28 12.144 223.158 12.5333 222.912 12.864C222.678 13.184 222.347 13.4293 221.92 13.6ZM217.648 13.168H219.952C220.539 13.168 220.982 13.0613 221.28 12.848C221.59 12.6347 221.744 12.3253 221.744 11.92C221.744 11.1093 221.147 10.704 219.952 10.704H217.648V13.168ZM220.112 16.816C220.752 16.816 221.232 16.7147 221.552 16.512C221.872 16.3093 222.032 15.9947 222.032 15.568C222.032 15.1307 221.883 14.8053 221.584 14.592C221.296 14.3787 220.838 14.272 220.208 14.272H217.648V16.816H220.112Z" fill="white"/>
<path d="M169.263 53.6495L164.244 54.4792C163.79 54.5535 163.357 54.7073 162.964 54.9287C162.572 55.1497 162.217 55.4406 161.92 55.7893C161.622 56.138 161.392 56.5323 161.238 56.9515C161.081 57.376 161 57.8263 161 58.2811L161.003 71.0275C161.003 71.5423 161.105 72.0434 161.297 72.5022C161.487 72.9596 161.772 73.3845 162.138 73.7474C162.504 74.1103 162.932 74.3932 163.393 74.5825C163.856 74.7726 164.36 74.8734 164.879 74.8734H172.579L172.695 75.5279C172.91 76.7484 173.409 77.8819 174.132 78.8467C174.856 79.8129 175.805 80.6145 176.917 81.1689C178.029 81.7226 179.244 82 180.46 82C181.676 82 182.89 81.723 184 81.1689C185.115 80.6145 186.064 79.8133 186.788 78.8463C187.511 77.8816 188.01 76.7484 188.226 75.5279L188.341 74.8734H226.106L226.221 75.5279C226.436 76.7484 226.935 77.8816 227.658 78.8463C228.382 79.8133 229.331 80.6145 230.443 81.1689C231.556 81.7226 232.77 82 233.987 82C235.203 82 236.417 81.723 237.527 81.1689C238.642 80.6145 239.59 79.8133 240.315 78.8467C241.038 77.8815 241.537 76.748 241.752 75.5279L241.868 74.8734H249.35C249.705 74.8734 250.049 74.805 250.362 74.6766C250.679 74.547 250.972 74.3548 251.22 74.1095C251.466 73.8661 251.661 73.5767 251.793 73.2624C251.926 72.9454 251.998 72.6049 252 72.2617L251.997 66.0749C252.001 65.1232 251.84 64.1782 251.529 63.2803C251.219 62.3832 250.762 61.5397 250.173 60.7893C249.58 60.0343 248.868 59.3873 248.071 58.8725C247.275 58.358 246.391 57.973 245.454 57.7397L232.32 54.4919L232.15 54.2342C230.908 52.3495 229.44 50.6336 227.785 49.1241C226.129 47.6135 224.283 46.3064 222.289 45.2386C220.294 44.1712 218.178 43.3587 215.995 42.8147C213.808 42.27 211.555 41.9941 209.292 42.0001L189.748 42.0034C187.092 41.9952 184.52 42.6617 182.25 43.8829C179.98 45.1042 178.015 46.8799 176.569 49.0924L176.56 49.1047C175.716 50.3364 174.633 51.3639 173.393 52.136C172.144 52.911 170.741 53.433 169.263 53.6495ZM236.502 80.2605C235.708 80.5865 234.854 80.7593 233.986 80.7593C233.116 80.7593 232.261 80.5865 231.467 80.2602C230.677 79.9339 229.949 79.4559 229.334 78.8459L229.331 78.8429C228.714 78.2302 228.232 77.5093 227.906 76.7267C227.577 75.9363 227.403 75.0884 227.403 74.2275C227.403 73.3665 227.577 72.5183 227.906 71.7309C228.232 70.9453 228.714 70.2239 229.331 69.6113L229.334 69.6083C229.951 68.9964 230.678 68.5181 231.467 68.194C232.264 67.8681 233.119 67.6953 233.986 67.6953C234.854 67.6953 235.708 67.8681 236.502 68.194C237.294 68.5181 238.021 68.9964 238.638 69.6083L238.641 69.6113C239.257 70.2225 239.738 70.9446 240.066 71.7309C240.395 72.5183 240.569 73.3665 240.569 74.2275C240.569 75.0884 240.395 75.9363 240.066 76.7237C239.74 77.5093 239.258 78.2302 238.641 78.8429L238.638 78.8459C238.023 79.4563 237.294 79.935 236.502 80.2605ZM182.979 80.2591C182.185 80.5865 181.33 80.7593 180.46 80.7593C179.59 80.7593 178.735 80.5865 177.941 80.2602C177.147 79.9324 176.419 79.4544 175.805 78.8459C175.189 78.2302 174.707 77.5093 174.38 76.7267C174.051 75.9363 173.877 75.0884 173.877 74.2275C173.877 73.3665 174.051 72.5183 174.38 71.7309C174.708 70.9446 175.19 70.2221 175.805 69.6113L175.808 69.6083C176.426 68.9964 177.152 68.5181 177.941 68.194C178.738 67.8681 179.593 67.6953 180.46 67.6953C181.327 67.6953 182.182 67.8681 182.976 68.194C183.768 68.5181 184.494 68.9964 185.112 69.6083L185.115 69.6113C185.729 70.2217 186.211 70.9435 186.539 71.7282C186.869 72.5153 187.043 73.3643 187.043 74.2275C187.043 75.0907 186.869 75.9397 186.54 76.7263C186.211 77.5108 185.729 78.2324 185.115 78.8429C184.501 79.4544 183.773 79.9324 182.979 80.2591ZM163.058 72.8334C162.592 72.3708 162.303 71.7316 162.303 71.0263L162.38 58.2795C162.377 57.6639 162.595 57.0908 162.965 56.6469C163.336 56.2011 163.864 55.8796 164.477 55.768C165.192 55.5959 168.935 54.9328 169.533 54.9328C171.191 54.6759 172.759 54.0808 174.146 53.2049C175.532 52.329 176.738 51.1708 177.675 49.7883C179.001 47.7584 180.799 46.1313 182.872 45.0157C184.948 43.899 187.306 43.2904 189.748 43.296L209.293 43.2927C213.777 43.2863 218.106 44.4235 221.903 46.5054C225.706 48.5898 228.983 51.6207 231.363 55.3943C231.407 55.4652 231.465 55.5268 231.53 55.5742C231.595 55.6209 231.67 55.6567 231.752 55.6773L245.131 58.9931C245.923 59.1898 246.673 59.5169 247.353 59.9556C248.031 60.3931 248.636 60.9423 249.141 61.5834C249.648 62.2293 250.038 62.9458 250.299 63.7004C250.559 64.4542 250.694 65.2564 250.693 66.0741V72.2793C250.684 72.6418 250.53 72.9685 250.288 73.2018C250.045 73.4371 249.713 73.5823 249.35 73.5823H241.868L241.752 72.9278C241.537 71.7073 241.038 70.5742 240.315 69.6094C239.592 68.6439 238.642 67.8427 237.527 67.2864C236.418 66.7327 235.204 66.4557 233.986 66.4557C232.769 66.4557 231.555 66.7327 230.445 67.2853C229.331 67.8427 228.381 68.6439 227.658 69.6094C226.935 70.5742 226.436 71.7073 226.221 72.9278L226.106 73.5823H188.341L188.225 72.9278C188.01 71.7073 187.511 70.5742 186.788 69.6094C186.064 68.6425 185.115 67.8412 184.003 67.2864C182.893 66.7331 181.678 66.4557 180.46 66.4557C179.242 66.4557 178.027 66.7327 176.917 67.2864C175.804 67.8412 174.856 68.6425 174.132 69.6094C173.409 70.5742 172.909 71.7073 172.694 72.9278L172.579 73.5823H164.879C164.169 73.5823 163.524 73.296 163.058 72.8334Z" fill="white"/>
</svg>
